# xmcd CD database file
#
# Track frame offsets:
#	150
#	2195
#	16855
#	38202
#	45180
#	52285
#	69070
#	77107
#	115335
#	125142
#	138175
#	163292
#
# Disc length: 2259 seconds
#
# Revision: 0
# Processed by: cddbd v1.5PL3 Copyright (c) Steve Scherf et al.
# Submitted via: CDex 1.51
#
DISCID=9c08d10c
DTITLE=Miss Nelson and Bruce - Dance Sing And Listen
DYEAR=1963
DGENRE=Electronic
TTITLE0=Introduction
TTITLE1=Clap Your Hands
TTITLE2=Sunflowers
TTITLE3=Skating Party
TTITLE4=Medieval Dances
TTITLE5=My Bones
TTITLE6=A Little Discussion And Eine Lleine Gebouncemusik
TTITLE7=Coco The Coconut
TTITLE8=Sailing
TTITLE9=A Stuffy Story
TTITLE10=Pussycats
TTITLE11=Trains
EXTD=YEAR: 1963
EXTT0=
EXTT1=
EXTT2=
EXTT3=
EXTT4=
EXTT5=
EXTT6=
EXTT7=
EXTT8=
EXTT9=
EXTT10=
EXTT11=
PLAYORDER=
